<svg xmlns="http://www.w3.org/2000/svg" viewBox="0 0 64 64">
  <defs>
    <linearGradient id="bg" x1="0%" y1="0%" x2="100%" y2="100%">
      <stop offset="0%" stop-color="#3b82f6"/>
      <stop offset="100%" stop-color="#06b6d4"/>
    </linearGradient>
    <linearGradient id="liquid" x1="0%" y1="0%" x2="0%" y2="100%">
      <stop offset="0%" stop-color="#fbbf24"/>
      <stop offset="60%" stop-color="#f59e0b"/>
      <stop offset="100%" stop-color="#d97706"/>
    </linearGradient>
  </defs>
  <rect width="64" height="64" rx="14" fill="url(#bg)"/>
  <path d="M22 14h6v16l-10 18c-1 2-0.5 4 1.5 5 2 1 4 0.5 5-1l10-20c1-2 0.5-4-1.5-5-2-1-4-0.5-5 1l-2 4V14z" fill="white" opacity="0.2"/>
  <path d="M24 12h4v14l-10 20c-1.5 2.5-0.5 5.5 2 7 2.5 1.5 5.5 0.5 7-2l10-20c1.5-2.5 0.5-5.5-2-7-2.5-1.5-5.5-0.5-7 2l-2 4V12z" fill="none" stroke="white" stroke-width="2.5" stroke-linecap="round" stroke-linejoin="round"/>
  <ellipse cx="25" cy="50" rx="9" ry="4.5" fill="url(#liquid)"/>
  <circle cx="31" cy="44" r="1.8" fill="white" opacity="0.9"/>
  <circle cx="28" cy="38" r="1.2" fill="white" opacity="0.7"/>
  <circle cx="22" cy="46" r="1.5" fill="white" opacity="0.8"/>
  <text x="46" y="24" font-family="system-ui, -apple-system, sans-serif" font-size="11" font-weight="800" fill="white" text-anchor="middle">化</text>
</svg>